<?xml version="1.0" encoding="utf-8"?>
<!-- Generator: Adobe Illustrator 27.2.0, SVG Export Plug-In . SVG Version: 6.00 Build 0)  -->
<svg version="1.1" id="Layer_1" xmlns="http://www.w3.org/2000/svg" xmlns:xlink="http://www.w3.org/1999/xlink" x="0px" y="0px"
	 viewBox="0 0 600 420" style="enable-background:new 0 0 600 420;" xml:space="preserve">
<style type="text/css">
	.st0{fill:#CBCBCB;}
	.st1{fill:#946440;}
	.st2{font-family:'Montserrat-Bold';}
	.st3{font-size:41.4986px;}
	.st4{fill:#F0384E;}
	.st5{font-size:19.7491px;}
</style>
<path d="M-854.3,908.8c-3.7,0-6.5,2.8-6.5,6.4c0,3.6,2.8,6.4,6.5,6.4s6.5-2.8,6.5-6.4C-847.9,911.6-850.7,908.8-854.3,908.8z
	 M-854.3,920.2c-2.8,0-5-2.1-5-4.9s2.1-4.9,5-4.9c2.8,0,5,2.1,5,4.9C-849.4,918-851.5,920.2-854.3,920.2z"/>
<path d="M-782.8,907.7v-3.4c0-0.2-0.2-0.2-0.3-0.2l-4.4,2.4l-4.3-2.4c-0.1-0.1-0.3,0-0.3,0.1v3.5h4.7H-782.8z M-783.9,905.7v1.1
	h-1.9L-783.9,905.7z M-791,906.8v-1.1l1.9,1.1H-791z"/>
<path d="M-862.4,913.5c0-2.5-1.9-4.2-4.4-4.2h-4.2v12h1.5v-10.6h2.6c1.8,0,3,1,3,2.8c0,1.8-1.2,3-3,3h-2.2c-0.2,0-0.2,0.2-0.1,0.3
	l5.3,4.8l0.9-1.1l-3.2-2.8C-864,917.5-862.4,915.7-862.4,913.5z"/>
<path d="M-825.6,908.9l-5.6,12l1.4,0.7l1.5-3.3h5.9l1.5,3.3l1.4-0.7l-5.6-12C-825.3,908.7-825.5,908.7-825.6,908.9z M-827.7,917
	l2.3-5l2.3,5H-827.7z"/>
<path d="M-793.6,921.3h12.3v-12.2h-12.3V921.3z M-786.7,910.5h3.9v9.4h-3.9V910.5z M-792.1,910.5h3.9v9.4h-3.9V910.5z"/>
<path d="M-833.5,908.9l-5.8,8.9l-5.8-8.9c-0.1-0.2-0.3-0.1-0.3,0.1v12.3h1.5v-7.6l4.4,6.6c0.1,0.2,0.3,0.2,0.4,0l4.4-6.8v7.8h1.5
	V909C-833.1,908.8-833.3,908.7-833.5,908.9z"/>
<path d="M-772.5,920.2c-3.2,0-4.8-2.5-4.8-5s1.5-4.9,4.8-4.9c1.6,0,3.1,0.5,3.9,2.1l1.4-1c-1-1.6-2.9-2.5-5.3-2.5
	c-3.7,0-6.4,2.8-6.4,6.4c0,3.6,2.7,6.4,6.4,6.4c2.6,0,4.3-1,5.3-2.5l-1.3-1C-769.3,919.7-770.9,920.2-772.5,920.2z"/>
<path d="M-808.3,918.2l-8.9-9.2c-0.2-0.2-0.4-0.2-0.4,0.2v12.3h1.5v-9.2l8.9,9.2c0.2,0.2,0.4,0.1,0.4-0.1v-12.3h-1.5V918.2
	L-808.3,918.2z"/>
<path d="M-804.3,910.6h3.3v10.8h1.5v-10.8h3.4v-1.5h-8.2C-804.3,909.1-804.3,910.6-804.3,910.6z"/>
<text transform="matrix(1 0 0 1 -1475.3397 655.1111)" class="st2" style="fill:#37225A; font-size:62.5px;">-30% скидка</text>
<text transform="matrix(1 0 0 1 -1318.2397 730.1111)" class="st2" style="fill:#37225A; font-size:62.5px;">8 марта</text>
<text transform="matrix(1 0 0 1 -152.6322 789.8994)" class="st2 st3" style="fill:#EFEFEF;">Happy Flower Day</text>
<text transform="matrix(1 0 0 1 -54.8322 885.8994)" class="st2" style="fill:#EFEFEF; font-size:80px;">-50%</text>
<text transform="matrix(1 0 0 1 656.4382 808.0815)" style="fill:#629DB1; font-family:'Montserrat-Black'; font-size:128.4379px;">1000 ТГ</text>
<g>
	<g>
		<path class="st0" d="M297.7,994H128.4c-6,0-10.9-4.9-10.9-10.9s4.9-10.9,10.9-10.9h158.4V742.5c0-6,4.9-10.9,10.9-10.9
			s10.9,4.9,10.9,10.9v240.6C308.6,989.1,303.7,994,297.7,994z"/>
	</g>
	<g>
		<path class="st0" d="M-204.7,611.3h169.3c6,0,10.9,4.9,10.9,10.9s-4.9,10.9-10.9,10.9h-158.4v229.7c0,6-4.9,10.9-10.9,10.9
			s-10.9-4.9-10.9-10.9V622.2C-215.6,616.2-210.7,611.3-204.7,611.3z"/>
	</g>
</g>
<image style="overflow:visible;" width="800" height="560" xlink:href="../../../banner04.jpg"  transform="matrix(0.75 0 0 0.75 0 0)">
</image>
<image style="overflow:visible;" width="800" height="560" xlink:href="../../../banner05.jpg"  transform="matrix(0.75 0 0 0.75 -773.0074 9.1915)">
</image>
<text transform="matrix(1 0 0 1 -735.6152 70.8076)" style="enable-background:new    ;"><tspan x="0" y="0" class="st2 st3" style="fill:#019EE4;">Only YOU</tspan><tspan x="0" y="49.8" class="st2 st3" style="fill:#019EE4;">букет для тебя</tspan><tspan x="0" y="99.6" class="st2 st3" style="fill:#019EE4;">50%</tspan></text>
<text transform="matrix(1 0 0 1 -735.2007 200.1584)" class="st2 st5" style="fill:#BE3C48;">от 9999₸</text>
<text transform="matrix(1 0 0 1 36.0869 70.8076)" class="st1 st2 st3">Красные розы</text>
<text transform="matrix(1 0 0 1 36.5015 105.5314)" class="st4 st2 st5">от 1999₸</text>
</svg>
